<svg width="109" height="35" viewBox="0 0 109 35" fill="none" xmlns="http://www.w3.org/2000/svg">
<path d="M57.4464 9.04254C57.4464 10.2678 56.4589 11.2548 55.233 11.2548C54.0071 11.2548 53.0196 10.2678 53.0196 9.04254C53.0196 7.81732 53.9731 6.83033 55.233 6.83033C56.4929 6.86436 57.4464 7.85135 57.4464 9.04254ZM48.3205 13.501C48.3205 13.7052 48.3205 14.0455 48.3205 14.0455C48.3205 14.0455 47.2649 12.6842 45.0174 12.6842C41.3058 12.6842 38.4114 15.509 38.4114 19.4229C38.4114 23.3028 41.2717 26.1617 45.0174 26.1617C47.2989 26.1617 48.3205 24.7663 48.3205 24.7663V25.3448C48.3205 25.6171 48.5248 25.8213 48.7972 25.8213H51.5554V13.0245C51.5554 13.0245 49.0356 13.0245 48.7972 13.0245C48.5248 13.0245 48.3205 13.2628 48.3205 13.501ZM48.3205 21.7032C47.8097 22.452 46.7881 23.0986 45.5623 23.0986C43.383 23.0986 41.7144 21.7372 41.7144 19.4229C41.7144 17.1086 43.383 15.7472 45.5623 15.7472C46.7541 15.7472 47.8437 16.4279 48.3205 17.1426V21.7032ZM53.5985 13.0245H56.8675V25.8213H53.5985V13.0245ZM102.429 12.6842C100.181 12.6842 99.1258 14.0455 99.1258 14.0455V6.86436H95.8569V25.8213C95.8569 25.8213 98.3767 25.8213 98.6151 25.8213C98.8875 25.8213 99.0918 25.5831 99.0918 25.3448V24.7663C99.0918 24.7663 100.147 26.1617 102.395 26.1617C106.106 26.1617 109.001 23.3028 109.001 19.4229C109.001 15.543 106.106 12.6842 102.429 12.6842ZM101.884 23.0646C100.624 23.0646 99.6366 22.4179 99.1258 21.6692V17.1086C99.6366 16.4279 100.726 15.7132 101.884 15.7132C104.063 15.7132 105.732 17.0746 105.732 19.3889C105.732 21.7032 104.063 23.0646 101.884 23.0646ZM94.1543 18.2317V25.8554H90.8853V18.6061C90.8853 16.496 90.2043 15.6451 88.3655 15.6451C87.378 15.6451 86.3564 16.1557 85.7094 16.9044V25.8213H82.4404V13.0245H85.0284C85.3008 13.0245 85.5051 13.2628 85.5051 13.501V14.0455C86.4586 13.0586 87.7185 12.6842 88.9784 12.6842C90.4086 12.6842 91.6004 13.0926 92.5538 13.9094C93.7116 14.8624 94.1543 16.0876 94.1543 18.2317ZM74.5064 12.6842C72.2589 12.6842 71.2033 14.0455 71.2033 14.0455V6.86436H67.9343V25.8213C67.9343 25.8213 70.4542 25.8213 70.6925 25.8213C70.965 25.8213 71.1693 25.5831 71.1693 25.3448V24.7663C71.1693 24.7663 72.2249 26.1617 74.4723 26.1617C78.184 26.1617 81.0784 23.3028 81.0784 19.4229C81.1124 15.543 78.218 12.6842 74.5064 12.6842ZM73.9615 23.0646C72.7016 23.0646 71.7141 22.4179 71.2033 21.6692V17.1086C71.7141 16.4279 72.8038 15.7132 73.9615 15.7132C76.1408 15.7132 77.8094 17.0746 77.8094 19.3889C77.8094 21.7032 76.1408 23.0646 73.9615 23.0646ZM65.108 12.6842C66.0955 12.6842 66.6063 12.8544 66.6063 12.8544V15.8834C66.6063 15.8834 63.8822 14.9645 62.1796 16.9044V25.8554H58.9106V13.0245C58.9106 13.0245 61.4304 13.0245 61.6688 13.0245C61.9412 13.0245 62.1455 13.2628 62.1455 13.501V14.0455C62.7585 13.3308 64.0865 12.6842 65.108 12.6842ZM31.1583 24.6642C30.9881 24.2558 30.8178 23.8133 30.6476 23.4389C30.3751 22.8263 30.1027 22.2477 29.8644 21.7032L29.8303 21.6692C27.4807 16.5641 24.9609 11.3909 22.3049 6.28579L22.2027 6.08158C21.9303 5.57107 21.6579 5.02653 21.3855 4.48198C21.0449 3.86937 20.7044 3.22272 20.1596 2.61011C19.0699 1.24875 17.5035 0.5 15.835 0.5C14.1324 0.5 12.6001 1.24875 11.4764 2.54204C10.9656 3.15465 10.591 3.8013 10.2505 4.41391C9.97808 4.95846 9.70566 5.503 9.43325 6.01351L9.33109 6.21772C6.7091 11.3228 4.15521 16.496 1.80563 21.6011L1.77158 21.6692C1.53322 22.2137 1.2608 22.7923 0.988389 23.4049C0.818129 23.7793 0.64787 24.1877 0.477611 24.6301C0.0349364 25.8894 -0.101271 27.0806 0.0689882 28.3058C0.443559 30.8584 2.14615 33.0025 4.49573 33.9555C5.38108 34.3298 6.30048 34.5 7.25393 34.5C7.52635 34.5 7.86686 34.466 8.13928 34.4319C9.26299 34.2958 10.4208 33.9214 11.5445 33.2748C12.9406 32.492 14.2686 31.3689 15.7669 29.7352C17.2652 31.3689 18.6273 32.492 19.9893 33.2748C21.113 33.9214 22.2708 34.2958 23.3945 34.4319C23.6669 34.466 24.0074 34.5 24.2799 34.5C25.2333 34.5 26.1868 34.3298 27.0381 33.9555C29.4217 33.0025 31.0902 30.8243 31.4648 28.3058C31.7372 27.1146 31.601 25.9234 31.1583 24.6642ZM15.8009 26.4339C13.9621 24.1196 12.7703 21.9414 12.3617 20.1036C12.1915 19.3208 12.1574 18.6401 12.2596 18.0275C12.3277 17.483 12.532 17.0065 12.8044 16.5981C13.4514 15.6792 14.541 15.1006 15.8009 15.1006C17.0609 15.1006 18.1846 15.6451 18.7975 16.5981C19.0699 17.0065 19.2742 17.483 19.3423 18.0275C19.4445 18.6401 19.4104 19.3549 19.2402 20.1036C18.8316 21.9074 17.6397 24.0856 15.8009 26.4339ZM29.3876 28.0335C29.1493 29.8033 27.9575 31.3348 26.2889 32.0155C25.4717 32.3559 24.5863 32.458 23.701 32.3559C22.8497 32.2538 21.9984 31.9815 21.113 31.471C19.8872 30.7903 18.6613 29.7352 17.2311 28.1697C19.4785 25.4129 20.8406 22.8944 21.3514 20.6481C21.5898 19.5931 21.6238 18.6401 21.5217 17.7553C21.3855 16.9044 21.079 16.1216 20.6023 15.4409C19.5467 13.9094 17.776 13.0245 15.8009 13.0245C13.8259 13.0245 12.0552 13.9434 10.9996 15.4409C10.5229 16.1216 10.2164 16.9044 10.0802 17.7553C9.94403 18.6401 9.97808 19.6271 10.2505 20.6481C10.7613 22.8944 12.1574 25.4469 14.3708 28.2037C12.9746 29.7693 11.7147 30.8243 10.4889 31.505C9.60351 32.0155 8.75221 32.2878 7.90092 32.3899C6.98152 32.492 6.09617 32.3559 5.31297 32.0495C3.64443 31.3689 2.45262 29.8373 2.21426 28.0676C2.1121 27.2167 2.1802 26.3659 2.52072 25.4129C2.62288 25.0726 2.79314 24.7322 2.9634 24.3238C3.20176 23.7793 3.47417 23.2007 3.74659 22.6221L3.78064 22.5541C6.13022 17.483 8.65006 12.3098 11.272 7.27277L11.3742 7.06857C11.6466 6.55806 11.919 6.01351 12.1915 5.503C12.4639 4.95846 12.7703 4.44795 13.1449 4.00551C13.86 3.18869 14.8134 2.74625 15.8691 2.74625C16.9247 2.74625 17.8781 3.18869 18.5932 4.00551C18.9678 4.44795 19.2742 4.95846 19.5467 5.503C19.8191 6.01351 20.0915 6.55806 20.3639 7.06857L20.4661 7.27277C23.054 12.3438 25.5738 17.517 27.9234 22.5881V22.6221C28.1958 23.1667 28.4342 23.7793 28.7066 24.3238C28.8769 24.7322 29.0471 25.0726 29.1493 25.4129C29.4217 26.2978 29.5238 27.1486 29.3876 28.0335Z" fill="#FF5A5F"/>
</svg>
